<svg xmlns="http://www.w3.org/2000/svg" viewBox="0 0 448 512">
  <path d="M94.3 315.8c0 25.9-21 46.9-46.9 46.9S.5 341.7.5 315.8c0-25.9 21-46.9 46.9-46.9h46.9v46.9zm24.5 0c0-25.9 21-46.9 46.9-46.9s46.9 21 46.9 46.9v117.2c0 25.9-21 46.9-46.9 46.9s-46.9-21-46.9-46.9V315.8zm46.9-221.4c-25.9 0-46.9-21-46.9-46.9S140.2.5 166.1.5s46.9 21 46.9 46.9v46.9h-46.9zm0 24.5c25.9 0 46.9 21 46.9 46.9s-21 46.9-46.9 46.9H93.2c-25.9 0-46.9-21-46.9-46.9s21-46.9 46.9-46.9h70.3zm187.3 187.3c0-25.9 21-46.9 46.9-46.9s46.9 21 46.9 46.9-21 46.9-46.9 46.9h-46.9v-46.9zm-24.5 0c0 25.9-21 46.9-46.9 46.9s-46.9-21-46.9-46.9V93.2c0-25.9 21-46.9 46.9-46.9s46.9 21 46.9 46.9v211.6zm-46.9 221.4c25.9 0 46.9 21 46.9 46.9s-21 46.9-46.9 46.9-46.9-21-46.9-46.9v-46.9h46.9zm0-24.5c-25.9 0-46.9-21-46.9-46.9s21-46.9 46.9-46.9h70.3c25.9 0 46.9 21 46.9 46.9s-21 46.9-46.9 46.9h-70.3z"/>
</svg>
